<svg width="462.354" height="91.407" viewBox="0 0 462.354 91.407" xmlns="http://www.w3.org/2000/svg"><g id="svgGroup" stroke-linecap="round" fill-rule="evenodd" font-size="9pt" fill="rgb(133, 189, 3)"><path d="M 37.842 39.649 L 36.475 44.336 Q 36.279 43.848 35.449 43.506 Q 34.619 43.164 33.545 42.969 A 20.629 20.629 0 0 0 32.3 42.7 A 27.913 27.913 0 0 0 30.908 42.481 Q 27.49 42.09 23.389 42.383 A 99.107 99.107 0 0 0 16.435 43.12 A 89.954 89.954 0 0 0 15.479 43.262 A 299.368 299.368 0 0 0 15.515 48.01 A 251.594 251.594 0 0 0 15.625 52.49 A 260.095 260.095 0 0 0 15.796 56.628 A 189.902 189.902 0 0 0 16.016 60.352 Q 16.183 62.769 16.328 64.724 A 588.758 588.758 0 0 0 16.455 66.406 L 16.748 70.215 Q 16.846 71.094 16.553 71.582 Q 16.064 72.168 15.381 72.949 A 8.736 8.736 0 0 1 14.654 73.682 Q 14.266 74.032 13.799 74.382 A 14.911 14.911 0 0 1 13.623 74.512 A 8.934 8.934 0 0 1 12.296 75.303 A 11.935 11.935 0 0 1 11.035 75.83 Q 9.521 76.367 7.568 76.465 A 1.265 1.265 0 0 1 7.221 76.421 Q 6.831 76.31 6.727 75.911 A 1.295 1.295 0 0 1 6.689 75.586 L 6.689 45.313 A 2.598 2.598 0 0 1 5.293 44.779 Q 4.431 44.147 3.662 42.774 A 10.111 10.111 0 0 1 2.391 38.054 Q 2.38 37.684 2.393 37.305 A 9.92 9.92 0 0 1 3.809 37.012 A 9.92 9.92 0 0 0 5.225 36.719 A 16.093 16.093 0 0 1 6.073 36.53 A 12.771 12.771 0 0 1 6.689 36.426 A 915.33 915.33 0 0 1 6.714 29.627 A 740.584 740.584 0 0 1 6.787 23.291 A 506.934 506.934 0 0 1 6.874 18.954 Q 6.958 15.54 7.08 12.793 A 157.271 157.271 0 0 1 6.177 12.891 A 183.862 183.862 0 0 1 5.225 12.988 Q 4.456 13.084 3.498 13.181 A 98.625 98.625 0 0 1 3.467 13.184 A 85.276 85.276 0 0 0 2.553 13.28 Q 2.12 13.328 1.734 13.376 A 51.459 51.459 0 0 0 1.709 13.379 A 3.902 3.902 0 0 1 0.83 12.061 A 11.732 11.732 0 0 1 0.342 10.547 Q 0.146 9.668 0.049 8.789 A 6.293 6.293 0 0 1 0 8.008 A 6.293 6.293 0 0 1 0.049 7.227 A 5.876 5.876 0 0 1 0.106 6.378 Q 0.169 5.948 0.301 5.598 A 2.493 2.493 0 0 1 0.635 4.981 A 208.147 208.147 0 0 0 1.758 4.773 A 268.081 268.081 0 0 0 2.979 4.541 Q 4.248 4.297 5.42 4.102 A 302.317 302.317 0 0 1 7.887 3.76 A 334.251 334.251 0 0 1 8.252 3.711 A 11.216 11.216 0 0 1 8.913 3.104 Q 9.278 2.794 9.717 2.464 A 24.197 24.197 0 0 1 10.352 2.002 A 18.462 18.462 0 0 1 12.133 0.9 A 22.456 22.456 0 0 1 13.33 0.293 Q 14.223 -0.119 14.729 0.048 A 0.775 0.775 0 0 1 15.088 0.293 A 1.711 1.711 0 0 1 15.327 0.694 Q 15.628 1.372 15.771 2.734 A 841.065 841.065 0 0 1 19.543 2.441 A 942.447 942.447 0 0 1 20.85 2.344 A 73.118 73.118 0 0 1 25.613 2.152 A 81.078 81.078 0 0 1 26.318 2.149 A 2103.05 2103.05 0 0 0 30.005 2.051 A 1712.475 1712.475 0 0 0 33.447 1.953 A 110.194 110.194 0 0 1 37.245 1.888 A 113.009 113.009 0 0 1 39.16 1.904 A 195.387 195.387 0 0 1 40.518 1.932 Q 42.432 1.978 43.604 2.051 A 1.265 1.265 0 0 1 44.393 2.474 Q 44.558 2.654 44.696 2.908 A 3.204 3.204 0 0 1 44.824 3.174 Q 45.264 4.199 45.117 5.811 Q 44.98 7.321 44.199 9.046 A 14.759 14.759 0 0 1 44.092 9.277 Q 43.213 11.133 41.455 12.891 Q 39.111 12.402 36.523 12.109 Q 33.936 11.816 31.787 11.621 Q 29.248 11.426 26.904 11.524 A 109.633 109.633 0 0 0 21.24 11.67 A 232.873 232.873 0 0 0 18.481 11.829 A 198.184 198.184 0 0 0 15.869 12.012 A 589.743 589.743 0 0 0 15.793 16.128 Q 15.761 18.243 15.737 20.611 A 1055.798 1055.798 0 0 0 15.723 22.217 A 2040.29 2040.29 0 0 1 15.662 28.333 A 2714.686 2714.686 0 0 1 15.576 35.059 A 26.439 26.439 0 0 1 17.572 34.848 A 23.338 23.338 0 0 1 18.213 34.815 A 78.183 78.183 0 0 0 20.172 34.714 A 87.538 87.538 0 0 0 20.85 34.668 A 2114.65 2114.65 0 0 0 27.27 34.302 A 1939.073 1939.073 0 0 0 27.686 34.277 A 41.144 41.144 0 0 1 29.294 34.213 Q 30.638 34.187 31.827 34.261 A 22.56 22.56 0 0 1 33.496 34.424 Q 35.18 34.655 36.306 35.266 A 4.686 4.686 0 0 1 37.256 35.938 Q 38.462 37.051 37.905 39.4 A 8.578 8.578 0 0 1 37.842 39.649 Z M 281.787 31.25 L 281.787 29.395 A 7.552 7.552 0 0 1 282.83 28.669 A 8.637 8.637 0 0 1 283.105 28.516 A 6.619 6.619 0 0 1 284.619 27.93 A 4.689 4.689 0 0 1 286.278 27.637 L 287.744 27.637 A 96.164 96.164 0 0 0 288.651 27.783 A 108.009 108.009 0 0 0 288.965 27.832 A 1.94 1.94 0 0 1 289.345 27.928 Q 289.572 28.012 289.735 28.152 A 1.061 1.061 0 0 1 289.893 28.32 A 10002.882 10002.882 0 0 1 289.612 34.412 Q 289.266 41.87 289.001 47.301 A 3018.432 3018.432 0 0 1 288.916 49.024 A 4871.868 4871.868 0 0 0 288.733 52.759 Q 288.477 58.032 288.33 61.328 A 1241.575 1241.575 0 0 0 288.196 63.739 Q 288.022 66.923 287.947 68.669 A 152.511 152.511 0 0 0 287.939 68.848 A 49.526 49.526 0 0 1 286.865 77.002 A 26.747 26.747 0 0 1 285.338 81.854 A 22.83 22.83 0 0 1 284.131 84.277 A 14.902 14.902 0 0 1 279.248 89.453 A 11.924 11.924 0 0 1 275.051 91.108 A 16.622 16.622 0 0 1 271.826 91.406 A 16.143 16.143 0 0 1 269.387 91.233 Q 268.105 91.037 267.054 90.618 A 7.893 7.893 0 0 1 265.723 89.941 A 11.052 11.052 0 0 1 263.376 87.961 A 9.636 9.636 0 0 1 262.207 86.328 A 13.545 13.545 0 0 1 260.596 81.787 A 32.102 32.102 0 0 1 260.309 79.572 Q 260.205 78.449 260.205 77.441 Q 260.205 77.07 260.517 76.415 A 8.396 8.396 0 0 1 260.742 75.977 A 7.36 7.36 0 0 1 261.352 75.051 Q 261.683 74.62 262.105 74.179 A 13.013 13.013 0 0 1 262.305 73.975 A 8.721 8.721 0 0 1 263.628 72.898 A 11.607 11.607 0 0 1 264.893 72.168 A 9.532 9.532 0 0 1 267.34 71.348 A 11.572 11.572 0 0 1 268.408 71.191 Q 267.529 73.828 267.334 75.977 A 9.489 9.489 0 0 0 267.204 77.539 A 9.404 9.404 0 0 0 267.236 78.32 A 13.518 13.518 0 0 0 267.43 80.674 Q 267.666 82.009 268.19 83.1 A 7.793 7.793 0 0 0 268.506 83.691 A 4.324 4.324 0 0 0 269.908 85.179 Q 270.95 85.84 272.412 85.84 A 5.337 5.337 0 0 0 276.516 84.041 A 7.107 7.107 0 0 0 277.002 83.447 A 15.868 15.868 0 0 0 278.836 80.169 A 20.505 20.505 0 0 0 279.688 77.686 Q 280.615 74.316 280.957 70.654 A 95.594 95.594 0 0 0 281.165 68.066 Q 281.299 66.04 281.299 64.453 L 281.299 61.621 A 20.523 20.523 0 0 1 280.562 62.861 A 26.086 26.086 0 0 1 279.883 63.867 A 11.228 11.228 0 0 1 278.026 65.893 A 12.51 12.51 0 0 1 277.881 66.016 A 9.487 9.487 0 0 1 276.063 67.196 A 11.622 11.622 0 0 1 275.098 67.627 A 8.787 8.787 0 0 1 273.234 68.122 Q 272.373 68.257 271.401 68.262 A 14.443 14.443 0 0 1 271.338 68.262 A 8.596 8.596 0 0 1 268.637 67.81 A 11.17 11.17 0 0 1 267.139 67.188 A 11.447 11.447 0 0 1 264.691 65.516 A 15.209 15.209 0 0 1 263.135 63.916 A 15.521 15.521 0 0 1 261.264 61.104 A 20.794 20.794 0 0 1 260.107 58.447 A 19.06 19.06 0 0 1 259.229 54.895 Q 258.936 52.979 258.936 50.781 A 41.37 41.37 0 0 1 259.159 46.344 Q 259.545 42.776 260.596 40.088 Q 262.256 35.84 264.648 33.252 A 15.669 15.669 0 0 1 267.151 31.043 A 12.392 12.392 0 0 1 269.873 29.59 A 18.541 18.541 0 0 1 272.176 28.875 Q 273.409 28.583 274.535 28.528 A 10.588 10.588 0 0 1 275.049 28.516 Q 277.013 28.516 278.44 29.053 A 6.261 6.261 0 0 1 279.102 29.346 A 12.241 12.241 0 0 1 280.579 30.237 A 9.36 9.36 0 0 1 281.787 31.25 Z M 432.568 47.559 L 432.568 43.652 A 151.683 151.683 0 0 0 432.561 42.252 Q 432.55 41.016 432.52 39.551 Q 432.471 37.207 432.373 34.668 Q 433.252 34.18 434.18 33.74 A 26.138 26.138 0 0 1 435.071 33.337 A 19.16 19.16 0 0 1 435.889 33.008 A 11.579 11.579 0 0 1 436.795 32.648 A 8.863 8.863 0 0 1 437.549 32.422 Q 439.209 31.948 440.229 31.793 A 7.569 7.569 0 0 1 440.674 31.738 A 2.666 2.666 0 0 1 440.819 31.729 Q 441.762 31.695 441.943 32.422 A 1.995 1.995 0 0 1 441.963 32.594 Q 442.013 33.247 441.865 35.022 A 64.683 64.683 0 0 1 441.846 35.254 Q 441.65 37.207 441.357 41.162 A 255.769 255.769 0 0 1 441.187 43.332 Q 440.985 45.768 440.68 49.022 A 934.26 934.26 0 0 1 440.381 52.149 A 251.785 251.785 0 0 0 441.271 49.928 Q 441.962 48.181 442.48 46.777 A 130.908 130.908 0 0 1 442.88 45.709 Q 443.376 44.403 443.77 43.462 A 39.922 39.922 0 0 1 443.896 43.164 A 37.979 37.979 0 0 1 444.253 42.193 Q 444.623 41.231 444.949 40.571 A 11.142 11.142 0 0 1 444.971 40.527 A 26.264 26.264 0 0 1 445.454 39.361 Q 445.801 38.574 446.24 37.695 A 42.199 42.199 0 0 1 447.44 35.462 A 36.962 36.962 0 0 1 447.852 34.766 A 64.546 64.546 0 0 1 448.657 33.472 A 47.331 47.331 0 0 1 449.414 32.324 Q 450.146 31.25 450.537 31.055 Q 450.797 30.881 451.981 31.016 A 16.311 16.311 0 0 1 452.295 31.055 A 10.034 10.034 0 0 1 453.906 31.414 A 13.706 13.706 0 0 1 455.42 31.982 A 12.665 12.665 0 0 1 457.656 33.267 A 15.294 15.294 0 0 1 458.643 34.033 A 6.419 6.419 0 0 1 460.148 35.839 A 5.958 5.958 0 0 1 460.693 37.207 A 11.655 11.655 0 0 1 460.979 38.619 Q 461.216 40.278 461.146 42.512 A 35.579 35.579 0 0 1 461.133 42.871 A 143.58 143.58 0 0 1 460.686 49.635 A 156.492 156.492 0 0 1 460.645 50.098 Q 460.303 53.809 460.107 57.129 A 29.33 29.33 0 0 0 460.071 57.935 Q 460.008 59.948 460.269 61.313 A 6.993 6.993 0 0 0 460.498 62.207 A 7.567 7.567 0 0 0 460.799 63.298 A 6.223 6.223 0 0 0 461.084 63.965 Q 461.279 64.746 461.621 65.381 A 4.143 4.143 0 0 0 461.862 65.777 Q 462.097 66.116 462.354 66.309 Q 460.117 67.334 458.681 67.825 A 17.946 17.946 0 0 1 458.545 67.871 Q 457.08 68.359 456.299 68.555 Q 455.444 68.811 455.038 68.768 A 0.776 0.776 0 0 1 454.932 68.75 A 2.134 2.134 0 0 1 454.149 68.271 Q 453.9 68.038 453.677 67.711 A 4.852 4.852 0 0 1 453.418 67.285 A 6.429 6.429 0 0 1 453.073 66.518 Q 452.746 65.661 452.464 64.391 A 29.159 29.159 0 0 1 452.295 63.574 Q 452.1 62.793 452.148 60.986 A 59.001 59.001 0 0 1 452.226 59.185 Q 452.281 58.239 452.367 57.187 A 99.296 99.296 0 0 1 452.393 56.885 A 363.692 363.692 0 0 1 452.713 53.333 A 411.411 411.411 0 0 1 452.832 52.1 A 166.513 166.513 0 0 0 453.052 49.683 A 137.498 137.498 0 0 0 453.223 47.412 Q 453.323 45.902 453.401 44.668 A 462.548 462.548 0 0 0 453.467 43.604 A 34.67 34.67 0 0 0 453.488 43.217 Q 453.552 41.927 453.468 41.413 A 2.023 2.023 0 0 0 453.467 41.406 Q 452.979 39.649 452.1 38.916 A 2.774 2.774 0 0 0 451.863 38.738 Q 451.153 38.265 450.732 38.77 Q 449.606 40.069 448.365 42.789 A 40.116 40.116 0 0 0 448.047 43.506 A 78.415 78.415 0 0 0 446.334 47.824 A 95.285 95.285 0 0 0 445.361 50.635 A 87.353 87.353 0 0 0 443.213 58.301 A 62.85 62.85 0 0 0 442.66 60.94 Q 442.262 63.078 442.139 64.746 A 1.103 1.103 0 0 1 441.973 65.155 Q 441.722 65.55 441.113 65.967 A 10.072 10.072 0 0 1 439.908 66.669 A 12.775 12.775 0 0 1 438.965 67.09 A 11.321 11.321 0 0 1 437.781 67.493 A 8.459 8.459 0 0 1 436.67 67.725 A 4.713 4.713 0 0 1 436.423 67.752 Q 435.821 67.802 435.47 67.654 A 0.82 0.82 0 0 1 435.205 67.481 A 7.349 7.349 0 0 1 434.98 67.244 Q 434.596 66.822 433.936 66.016 Q 433.135 65.038 432.902 62.927 A 14.115 14.115 0 0 1 432.861 62.5 Q 432.729 60.774 432.686 58.439 A 128.601 128.601 0 0 1 432.666 56.104 A 356.402 356.402 0 0 0 432.642 52.039 A 477.315 477.315 0 0 0 432.568 47.559 Z M 223.193 48.828 A 388.527 388.527 0 0 0 225.293 49.585 A 334.614 334.614 0 0 0 227.295 50.293 Q 229.248 50.977 230.713 51.953 A 8.846 8.846 0 0 1 232.306 53.298 A 7.609 7.609 0 0 1 233.057 54.248 A 5.077 5.077 0 0 1 233.79 56.037 A 7.187 7.187 0 0 1 233.936 57.52 Q 233.936 59.863 232.91 61.914 A 10.56 10.56 0 0 1 230.526 65.021 A 12.531 12.531 0 0 1 229.932 65.527 A 13.862 13.862 0 0 1 227.205 67.214 A 17.81 17.81 0 0 1 225.195 68.018 A 17.92 17.92 0 0 1 221.468 68.815 A 22.75 22.75 0 0 1 218.994 68.945 Q 216.495 68.945 214.626 68.63 A 13.57 13.57 0 0 1 212.842 68.213 A 17.833 17.833 0 0 1 211.388 67.693 Q 210.73 67.423 210.19 67.126 A 7.543 7.543 0 0 1 209.229 66.504 A 7.786 7.786 0 0 1 208.521 65.894 Q 207.837 65.222 207.568 64.551 Q 207.178 63.574 207.178 62.988 A 6.637 6.637 0 0 1 207.296 61.776 Q 207.418 61.12 207.666 60.4 Q 208.154 58.984 209.521 57.324 Q 210.107 56.641 210.791 56.055 Q 212.158 54.883 213.525 54.59 A 10.885 10.885 0 0 0 213.488 55.251 Q 213.446 56.864 213.941 57.997 A 4.335 4.335 0 0 0 214.063 58.252 A 5.992 5.992 0 0 0 215.073 59.677 A 5.232 5.232 0 0 0 216.016 60.449 A 7.7 7.7 0 0 0 218.562 61.485 A 8.783 8.783 0 0 0 218.75 61.524 A 16.248 16.248 0 0 0 220.585 61.775 A 13.58 13.58 0 0 0 221.631 61.816 A 10.289 10.289 0 0 0 224.061 61.517 A 11.647 11.647 0 0 0 224.414 61.426 A 12.836 12.836 0 0 0 226.246 60.773 A 11.138 11.138 0 0 0 227.002 60.4 A 7.961 7.961 0 0 0 228.049 59.728 A 5.995 5.995 0 0 0 228.906 58.936 A 3.121 3.121 0 0 0 229.4 58.195 A 2.488 2.488 0 0 0 229.639 57.129 Q 229.639 56.055 228.76 55.371 A 6.236 6.236 0 0 0 227.737 54.731 Q 227.201 54.461 226.562 54.248 A 17.359 17.359 0 0 0 224.487 53.701 A 20.177 20.177 0 0 0 223.73 53.565 A 59.365 59.365 0 0 1 221.542 53.171 A 51.653 51.653 0 0 1 220.85 53.027 A 112.684 112.684 0 0 1 220.108 52.866 Q 219.283 52.683 218.212 52.436 A 364.678 364.678 0 0 1 217.188 52.197 A 18.415 18.415 0 0 1 212.833 50.561 A 20.383 20.383 0 0 1 212.695 50.488 A 12.56 12.56 0 0 1 208.887 47.363 Q 207.36 45.513 207.28 42.524 A 12.496 12.496 0 0 1 207.275 42.188 A 12.211 12.211 0 0 1 207.813 38.507 A 10.566 10.566 0 0 1 209.18 35.693 Q 211.084 32.91 213.867 31.006 A 22.083 22.083 0 0 1 219.775 28.125 A 24.645 24.645 0 0 1 222.202 27.493 Q 223.892 27.149 225.342 27.149 Q 226.611 27.149 228.076 27.49 Q 229.541 27.832 230.811 28.662 A 6.778 6.778 0 0 1 232.884 30.817 A 7.794 7.794 0 0 1 232.91 30.859 Q 233.632 32.048 233.726 33.826 A 10.357 10.357 0 0 1 233.74 34.375 Q 233.74 35.782 233.594 36.833 A 8.976 8.976 0 0 1 233.398 37.842 A 7.077 7.077 0 0 1 233.115 38.714 Q 232.938 39.152 232.716 39.498 A 3.441 3.441 0 0 1 232.422 39.893 A 2.951 2.951 0 0 1 231.643 40.54 A 2.66 2.66 0 0 1 230.908 40.82 Q 230.029 41.016 228.857 41.016 A 5.542 5.542 0 0 1 227.807 40.919 A 4.846 4.846 0 0 1 227.393 40.82 A 27.588 27.588 0 0 0 226.782 40.625 A 34.066 34.066 0 0 0 226.123 40.43 A 3.414 3.414 0 0 1 224.964 39.835 A 3.965 3.965 0 0 1 224.854 39.746 A 14.49 14.49 0 0 0 225.624 38.739 Q 225.996 38.204 226.269 37.69 A 8.52 8.52 0 0 0 226.367 37.5 A 4.807 4.807 0 0 0 226.769 36.309 Q 226.904 35.648 226.904 34.863 A 4.34 4.34 0 0 0 226.55 33.104 A 4.193 4.193 0 0 0 226.172 32.422 A 2.346 2.346 0 0 0 224.769 31.463 Q 224.359 31.357 223.864 31.348 A 5.022 5.022 0 0 0 223.779 31.348 A 8.54 8.54 0 0 0 220.41 32.031 A 9.284 9.284 0 0 0 217.578 33.887 Q 216.357 35.059 215.625 36.572 Q 214.893 38.086 214.893 39.844 A 7.044 7.044 0 0 0 215.949 43.521 A 9.684 9.684 0 0 0 216.895 44.824 A 10.723 10.723 0 0 0 218.854 46.583 Q 219.841 47.284 221.091 47.907 A 24.586 24.586 0 0 0 223.193 48.828 Z M 138.428 65.723 L 134.033 67.383 A 2.56 2.56 0 0 1 133.533 67.523 Q 133.287 67.567 133.007 67.576 A 4.569 4.569 0 0 1 132.861 67.578 A 2.669 2.669 0 0 1 132.032 67.44 A 3.651 3.651 0 0 1 131.445 67.188 A 2.46 2.46 0 0 1 130.745 66.618 Q 130.516 66.353 130.321 66.004 A 4.698 4.698 0 0 1 130.225 65.82 Q 129.741 64.854 129.736 63.121 A 12.604 12.604 0 0 1 129.736 63.086 Q 129.736 62.402 129.785 61.377 A 38.788 38.788 0 0 0 129.815 60.56 Q 129.824 60.199 129.829 59.806 A 67.912 67.912 0 0 0 129.834 58.984 A 48.375 48.375 0 0 1 127.295 62.793 A 19.535 19.535 0 0 1 125.107 65.302 A 17.262 17.262 0 0 1 124.316 66.016 Q 122.705 67.383 120.85 68.213 A 9.46 9.46 0 0 1 116.943 69.043 A 9.236 9.236 0 0 1 113.135 68.213 A 9.481 9.481 0 0 1 110.282 66.221 A 11.217 11.217 0 0 1 109.814 65.723 A 10.877 10.877 0 0 1 108.447 63.751 Q 107.925 62.801 107.507 61.663 A 18.47 18.47 0 0 1 107.422 61.426 Q 106.621 59.15 106.511 56.073 A 27.972 27.972 0 0 1 106.494 55.078 A 49.185 49.185 0 0 1 106.793 49.509 Q 107.118 46.666 107.794 44.208 A 28.579 28.579 0 0 1 108.057 43.311 Q 109.619 38.281 112.012 34.912 A 22.409 22.409 0 0 1 114.16 32.303 Q 115.611 30.802 117.187 29.834 A 14.244 14.244 0 0 1 119.049 28.861 Q 120.075 28.424 121.034 28.247 A 7.029 7.029 0 0 1 122.314 28.125 A 10.995 10.995 0 0 1 124.507 28.33 Q 125.824 28.598 126.835 29.217 A 5.919 5.919 0 0 1 127.881 30.029 A 14.742 14.742 0 0 1 129.47 31.839 A 10.808 10.808 0 0 1 130.713 33.984 Q 130.811 31.152 130.859 28.662 A 303.404 303.404 0 0 0 130.889 26.898 Q 130.899 26.205 130.903 25.584 A 152.786 152.786 0 0 0 130.908 24.414 Q 130.908 17.188 130.615 11.524 Q 130.322 5.859 129.15 2.93 A 19.251 19.251 0 0 1 130.261 2.34 Q 130.809 2.073 131.311 1.879 A 10.452 10.452 0 0 1 131.641 1.758 Q 132.544 1.444 133.29 1.256 A 12.884 12.884 0 0 1 133.643 1.172 A 10.015 10.015 0 0 1 134.407 0.993 Q 134.783 0.922 135.114 0.895 A 4.756 4.756 0 0 1 135.498 0.879 A 5.909 5.909 0 0 1 136.599 0.974 Q 137.2 1.088 137.659 1.34 A 2.578 2.578 0 0 1 138.525 2.1 A 4.324 4.324 0 0 1 139.171 3.477 Q 139.404 4.314 139.404 5.371 A 20.725 20.725 0 0 1 139.395 5.939 Q 139.362 7.129 139.209 9.57 A 1335.882 1335.882 0 0 1 139.049 12.093 Q 138.904 14.343 138.721 17.09 A 767.271 767.271 0 0 0 138.428 21.704 A 1007.115 1007.115 0 0 0 138.135 26.758 A 543.237 543.237 0 0 0 137.646 37.5 A 2385.88 2385.88 0 0 0 137.463 42.786 A 1922.981 1922.981 0 0 0 137.305 47.705 A 242.286 242.286 0 0 0 137.222 51.113 Q 137.177 53.833 137.207 56.152 Q 137.242 58.836 137.405 60.881 A 39.471 39.471 0 0 0 137.549 62.354 Q 137.842 64.844 138.428 65.723 Z M 392.92 65.723 L 388.525 67.383 A 2.56 2.56 0 0 1 388.025 67.523 Q 387.779 67.567 387.499 67.576 A 4.569 4.569 0 0 1 387.354 67.578 A 2.669 2.669 0 0 1 386.525 67.44 A 3.651 3.651 0 0 1 385.938 67.188 A 2.46 2.46 0 0 1 385.238 66.618 Q 385.008 66.353 384.814 66.004 A 4.698 4.698 0 0 1 384.717 65.82 Q 384.233 64.854 384.229 63.121 A 12.604 12.604 0 0 1 384.229 63.086 Q 384.229 62.402 384.277 61.377 A 38.788 38.788 0 0 0 384.307 60.56 Q 384.317 60.199 384.321 59.806 A 67.912 67.912 0 0 0 384.326 58.984 A 48.375 48.375 0 0 1 381.787 62.793 A 19.535 19.535 0 0 1 379.599 65.302 A 17.262 17.262 0 0 1 378.809 66.016 Q 377.197 67.383 375.342 68.213 A 9.46 9.46 0 0 1 371.436 69.043 A 9.236 9.236 0 0 1 367.627 68.213 A 9.481 9.481 0 0 1 364.774 66.221 A 11.217 11.217 0 0 1 364.307 65.723 A 10.877 10.877 0 0 1 362.939 63.751 Q 362.417 62.801 361.999 61.663 A 18.47 18.47 0 0 1 361.914 61.426 Q 361.113 59.15 361.004 56.073 A 27.972 27.972 0 0 1 360.986 55.078 A 49.185 49.185 0 0 1 361.285 49.509 Q 361.61 46.666 362.286 44.208 A 28.579 28.579 0 0 1 362.549 43.311 Q 364.111 38.281 366.504 34.912 A 22.409 22.409 0 0 1 368.652 32.303 Q 370.103 30.802 371.68 29.834 A 14.244 14.244 0 0 1 373.541 28.861 Q 374.567 28.424 375.526 28.247 A 7.029 7.029 0 0 1 376.807 28.125 A 10.995 10.995 0 0 1 378.999 28.33 Q 380.316 28.598 381.327 29.217 A 5.919 5.919 0 0 1 382.373 30.029 A 14.742 14.742 0 0 1 383.962 31.839 A 10.808 10.808 0 0 1 385.205 33.984 Q 385.303 31.152 385.352 28.662 A 303.404 303.404 0 0 0 385.381 26.898 Q 385.391 26.205 385.396 25.584 A 152.786 152.786 0 0 0 385.4 24.414 Q 385.4 17.188 385.107 11.524 Q 384.814 5.859 383.643 2.93 A 19.251 19.251 0 0 1 384.753 2.34 Q 385.301 2.073 385.803 1.879 A 10.452 10.452 0 0 1 386.133 1.758 Q 387.037 1.444 387.782 1.256 A 12.884 12.884 0 0 1 388.135 1.172 A 10.015 10.015 0 0 1 388.899 0.993 Q 389.275 0.922 389.606 0.895 A 4.756 4.756 0 0 1 389.99 0.879 A 5.909 5.909 0 0 1 391.091 0.974 Q 391.692 1.088 392.151 1.34 A 2.578 2.578 0 0 1 393.018 2.1 A 4.324 4.324 0 0 1 393.663 3.477 Q 393.896 4.314 393.896 5.371 A 20.725 20.725 0 0 1 393.887 5.939 Q 393.854 7.129 393.701 9.57 A 1335.882 1335.882 0 0 1 393.541 12.093 Q 393.396 14.343 393.213 17.09 A 767.271 767.271 0 0 0 392.92 21.704 A 1007.115 1007.115 0 0 0 392.627 26.758 A 543.237 543.237 0 0 0 392.139 37.5 A 2385.88 2385.88 0 0 0 391.956 42.786 A 1922.981 1922.981 0 0 0 391.797 47.705 A 242.286 242.286 0 0 0 391.714 51.113 Q 391.669 53.833 391.699 56.152 Q 391.735 58.836 391.898 60.881 A 39.471 39.471 0 0 0 392.041 62.354 Q 392.334 64.844 392.92 65.723 Z M 324.17 62.402 A 4.506 4.506 0 0 0 324.756 63.672 A 3.174 3.174 0 0 0 325.149 64.191 A 4.302 4.302 0 0 0 325.586 64.6 A 2.402 2.402 0 0 0 326.529 65.067 A 3.066 3.066 0 0 0 326.904 65.137 A 9.503 9.503 0 0 1 326.52 65.836 Q 326.028 66.641 325.537 66.992 A 4.027 4.027 0 0 1 325.303 67.156 Q 325.055 67.316 324.854 67.383 A 4.357 4.357 0 0 1 324.254 67.531 Q 323.631 67.644 322.746 67.669 A 18.711 18.711 0 0 1 322.217 67.676 A 5.952 5.952 0 0 1 319.536 67.023 A 7.559 7.559 0 0 1 318.799 66.602 Q 318.213 66.113 317.725 65.137 Q 317.236 64.356 316.895 62.94 Q 316.553 61.524 316.357 59.277 A 21.126 21.126 0 0 1 315.202 61.437 Q 314.556 62.485 313.846 63.307 A 11.301 11.301 0 0 1 313.281 63.916 Q 311.826 65.371 310.406 66.154 A 8.686 8.686 0 0 1 309.912 66.406 A 9.89 9.89 0 0 1 307.435 67.438 A 8.783 8.783 0 0 1 306.104 67.676 A 9.715 9.715 0 0 1 305.329 67.707 A 9.032 9.032 0 0 1 301.465 66.846 Q 299.268 65.82 297.754 63.721 A 13.394 13.394 0 0 1 296.283 61.065 A 17.952 17.952 0 0 1 295.459 58.594 A 17.792 17.792 0 0 1 294.971 55.68 Q 294.821 53.951 294.952 52.017 A 28.532 28.532 0 0 1 294.971 51.758 Q 295.264 47.754 296.533 44.629 A 28.447 28.447 0 0 1 298.311 40.99 A 24.011 24.011 0 0 1 299.561 39.063 A 27.035 27.035 0 0 1 301.6 36.548 A 21.654 21.654 0 0 1 303.271 34.912 A 33.812 33.812 0 0 1 305.188 33.35 A 25.076 25.076 0 0 1 307.031 32.08 A 31.219 31.219 0 0 1 308.267 31.349 Q 308.855 31.02 309.379 30.767 A 13.722 13.722 0 0 1 310.156 30.42 Q 311.211 29.99 311.672 29.842 A 3.122 3.122 0 0 1 311.865 29.785 A 7.005 7.005 0 0 1 312.516 29.639 Q 313.148 29.53 313.659 29.583 A 2.978 2.978 0 0 1 313.721 29.59 Q 314.502 29.688 315.088 30.469 A 11.272 11.272 0 0 0 315.248 30.702 Q 315.393 30.908 315.576 31.152 A 21.678 21.678 0 0 1 315.68 31.363 Q 315.822 31.654 316.004 32.047 A 67.387 67.387 0 0 1 316.064 32.178 A 7.402 7.402 0 0 1 316.393 33.028 A 9.169 9.169 0 0 1 316.553 33.594 A 35.44 35.44 0 0 0 312.287 35.904 A 32.756 32.756 0 0 0 312.158 35.986 A 19.263 19.263 0 0 0 308.398 39.16 A 16.81 16.81 0 0 0 306.434 41.785 A 21.166 21.166 0 0 0 305.42 43.652 A 19.843 19.843 0 0 0 304.421 46.184 Q 303.994 47.513 303.671 49.05 A 36.072 36.072 0 0 0 303.467 50.098 A 20.133 20.133 0 0 0 303.186 51.849 Q 302.943 53.987 303.279 55.693 A 7.936 7.936 0 0 0 304.004 57.813 A 6.546 6.546 0 0 0 304.751 58.969 Q 306.071 60.573 308.014 60.278 A 4.442 4.442 0 0 0 308.154 60.254 A 6.97 6.97 0 0 0 309.881 59.427 A 9.582 9.582 0 0 0 311.182 58.399 A 10.208 10.208 0 0 0 312.072 57.454 Q 312.505 56.938 312.954 56.295 A 25.549 25.549 0 0 0 313.867 54.883 A 18.839 18.839 0 0 0 314.823 53.064 Q 315.271 52.097 315.704 50.94 A 46.059 46.059 0 0 0 316.553 48.438 A 964.587 964.587 0 0 1 316.788 45.664 Q 317.021 42.963 317.215 40.925 A 277.938 277.938 0 0 1 317.383 39.209 A 167.207 167.207 0 0 1 317.551 37.625 Q 317.798 35.4 318.018 34.082 A 108.662 108.662 0 0 1 318.179 33.25 Q 318.403 32.122 318.546 31.561 A 7.788 7.788 0 0 1 318.604 31.348 A 1.596 1.596 0 0 1 318.874 31.018 Q 319.166 30.739 319.663 30.478 A 6.004 6.004 0 0 1 319.775 30.42 A 9.927 9.927 0 0 1 321.013 29.906 A 12.012 12.012 0 0 1 321.729 29.688 Q 322.718 29.418 323.541 29.355 A 6.843 6.843 0 0 1 323.682 29.346 A 11.969 11.969 0 0 1 323.892 29.336 Q 324.507 29.313 324.78 29.375 A 0.77 0.77 0 0 1 324.854 29.395 Q 325.019 29.477 325.044 31.135 A 42.848 42.848 0 0 1 325.049 31.787 A 86.506 86.506 0 0 1 325.04 33.008 Q 325.012 34.949 324.902 37.549 A 1133.499 1133.499 0 0 1 324.744 41.162 A 1432.834 1432.834 0 0 1 324.561 45.068 Q 324.365 49.121 324.219 52.734 Q 324.118 55.219 324.063 57.264 A 209.068 209.068 0 0 0 324.023 59.033 A 62.411 62.411 0 0 0 324.016 59.519 Q 323.995 61.57 324.138 62.271 A 1.769 1.769 0 0 0 324.17 62.402 Z M 171.17 67.877 A 16.251 16.251 0 0 0 175.635 68.457 A 14.11 14.11 0 0 0 178.26 68.224 A 10.263 10.263 0 0 0 181.934 66.797 A 18.692 18.692 0 0 0 183.206 65.905 A 15.538 15.538 0 0 0 186.182 62.94 A 18.115 18.115 0 0 0 187.397 61.12 A 13.863 13.863 0 0 0 188.574 58.545 Q 189.307 56.348 189.307 55.274 A 3.502 3.502 0 0 0 189.305 55.17 Q 189.292 54.714 189.156 54.452 A 0.61 0.61 0 0 0 188.574 54.102 A 1.612 1.612 0 0 0 188.371 54.114 Q 187.799 54.187 187.549 54.688 Q 187.329 55.2 186.835 56.07 A 39.778 39.778 0 0 1 186.475 56.69 A 11.612 11.612 0 0 1 185.682 57.854 A 14.737 14.737 0 0 1 184.424 59.277 A 11.732 11.732 0 0 1 183.292 60.27 A 14.334 14.334 0 0 1 181.348 61.524 A 7.819 7.819 0 0 1 179.471 62.24 A 9.584 9.584 0 0 1 177.197 62.5 A 9.848 9.848 0 0 1 176.248 62.455 A 7.214 7.214 0 0 1 171.631 60.303 Q 170.02 58.655 169.452 55.112 A 24.434 24.434 0 0 1 169.189 52.539 Q 170.068 53.32 171.143 53.711 A 5.324 5.324 0 0 0 171.575 53.847 Q 172.062 53.978 172.633 54.042 A 10.388 10.388 0 0 0 173.779 54.102 A 8.158 8.158 0 0 0 173.868 54.101 Q 176.268 54.075 178.857 52.637 A 17.934 17.934 0 0 0 179.99 51.952 A 19.726 19.726 0 0 0 183.691 48.779 A 20.069 20.069 0 0 0 187.256 43.311 A 17.371 17.371 0 0 0 187.576 42.541 A 14.908 14.908 0 0 0 188.623 37.109 A 16.891 16.891 0 0 0 188.6 36.214 Q 188.517 34.65 188.137 33.343 A 8.389 8.389 0 0 0 186.084 29.736 Q 183.545 27.149 179.932 27.149 Q 176.221 27.149 172.852 29.053 A 18.314 18.314 0 0 0 171.022 30.236 A 20.164 20.164 0 0 0 166.943 34.277 A 23.962 23.962 0 0 0 164.918 37.416 A 29.356 29.356 0 0 0 162.891 42.139 A 28.359 28.359 0 0 0 162.228 44.449 A 31.446 31.446 0 0 0 161.377 51.856 A 29.21 29.21 0 0 0 161.38 52.277 Q 161.42 55.05 161.989 57.418 A 16.074 16.074 0 0 0 165.088 63.867 A 11.792 11.792 0 0 0 171.17 67.877 Z M 408.181 67.877 A 16.251 16.251 0 0 0 412.646 68.457 A 14.11 14.11 0 0 0 415.272 68.224 A 10.263 10.263 0 0 0 418.945 66.797 A 18.692 18.692 0 0 0 420.218 65.905 A 15.538 15.538 0 0 0 423.193 62.94 A 18.115 18.115 0 0 0 424.409 61.12 A 13.863 13.863 0 0 0 425.586 58.545 Q 426.318 56.348 426.318 55.274 A 3.502 3.502 0 0 0 426.317 55.17 Q 426.303 54.714 426.168 54.452 A 0.61 0.61 0 0 0 425.586 54.102 A 1.612 1.612 0 0 0 425.383 54.114 Q 424.811 54.187 424.561 54.688 Q 424.341 55.2 423.846 56.07 A 39.778 39.778 0 0 1 423.486 56.69 A 11.612 11.612 0 0 1 422.694 57.854 A 14.737 14.737 0 0 1 421.436 59.277 A 11.732 11.732 0 0 1 420.304 60.27 A 14.334 14.334 0 0 1 418.359 61.524 A 7.819 7.819 0 0 1 416.483 62.24 A 9.584 9.584 0 0 1 414.209 62.5 A 9.848 9.848 0 0 1 413.26 62.455 A 7.214 7.214 0 0 1 408.643 60.303 Q 407.031 58.655 406.464 55.112 A 24.434 24.434 0 0 1 406.201 52.539 Q 407.08 53.32 408.154 53.711 A 5.324 5.324 0 0 0 408.587 53.847 Q 409.073 53.978 409.645 54.042 A 10.388 10.388 0 0 0 410.791 54.102 A 8.158 8.158 0 0 0 410.879 54.101 Q 413.28 54.075 415.869 52.637 A 17.934 17.934 0 0 0 417.002 51.952 A 19.726 19.726 0 0 0 420.703 48.779 A 20.069 20.069 0 0 0 424.268 43.311 A 17.371 17.371 0 0 0 424.588 42.541 A 14.908 14.908 0 0 0 425.635 37.109 A 16.891 16.891 0 0 0 425.612 36.214 Q 425.528 34.65 425.149 33.343 A 8.389 8.389 0 0 0 423.096 29.736 Q 420.557 27.149 416.943 27.149 Q 413.232 27.149 409.863 29.053 A 18.314 18.314 0 0 0 408.034 30.236 A 20.164 20.164 0 0 0 403.955 34.277 A 23.962 23.962 0 0 0 401.93 37.416 A 29.356 29.356 0 0 0 399.902 42.139 A 28.359 28.359 0 0 0 399.24 44.449 A 31.446 31.446 0 0 0 398.389 51.856 A 29.21 29.21 0 0 0 398.392 52.277 Q 398.432 55.05 399.001 57.418 A 16.074 16.074 0 0 0 402.1 63.867 A 11.792 11.792 0 0 0 408.181 67.877 Z M 358.718 39.218 A 5.563 5.563 0 0 0 359.033 37.402 A 2.384 2.384 0 0 0 359.033 37.393 Q 359.031 36.953 358.868 36.084 A 25.272 25.272 0 0 0 358.74 35.449 A 10.501 10.501 0 0 0 358.557 34.723 A 11.917 11.917 0 0 0 357.764 32.715 A 8.809 8.809 0 0 0 355.957 30.274 A 3.725 3.725 0 0 0 354.423 29.383 A 4.705 4.705 0 0 0 353.076 29.199 Q 350.83 29.199 348.975 30.42 A 13.281 13.281 0 0 0 348.489 30.755 A 14.265 14.265 0 0 0 345.654 33.496 A 25.53 25.53 0 0 0 343.066 37.5 A 40.027 40.027 0 0 0 342.053 39.575 A 29.482 29.482 0 0 0 341.26 41.504 Q 341.65 38.086 341.895 34.912 A 203.594 203.594 0 0 0 341.976 33.82 Q 342.095 32.152 342.127 31.235 A 16.784 16.784 0 0 0 342.139 30.664 A 0.488 0.488 0 0 0 342.028 30.339 Q 341.774 30.037 340.937 30.069 A 4.993 4.993 0 0 0 340.771 30.078 A 8.175 8.175 0 0 0 340.578 30.094 Q 339.897 30.159 339.156 30.343 A 13.454 13.454 0 0 0 337.793 30.762 A 22.968 22.968 0 0 0 336.626 31.222 A 18.925 18.925 0 0 0 334.863 32.08 Q 333.864 32.635 333.622 32.994 A 0.384 0.384 0 0 0 333.545 33.203 A 89.847 89.847 0 0 1 333.588 34.29 A 102.3 102.3 0 0 1 333.643 37.695 A 74.254 74.254 0 0 1 333.632 38.901 Q 333.597 41.046 333.447 44.336 A 87.76 87.76 0 0 0 333.276 46.68 A 111.084 111.084 0 0 0 333.154 49.219 A 282.616 282.616 0 0 0 333.008 54.541 A 147.727 147.727 0 0 0 332.983 57.227 A 147.727 147.727 0 0 0 333.008 59.912 A 91.191 91.191 0 0 0 333.009 59.997 Q 333.035 61.314 333.095 62.501 A 56.911 56.911 0 0 0 333.252 64.746 Q 333.308 66.045 333.708 66.821 A 2.085 2.085 0 0 0 334.473 67.676 A 3.63 3.63 0 0 0 336.397 68.208 Q 336.697 68.208 337.012 68.164 Q 338.428 67.969 339.746 67.285 A 23.677 23.677 0 0 0 340.169 67.06 Q 340.827 66.702 341.263 66.403 A 5.227 5.227 0 0 0 341.65 66.113 A 4.719 4.719 0 0 1 341.35 65.446 Q 341.213 65.073 341.104 64.624 A 11.765 11.765 0 0 1 340.918 63.672 A 37.905 37.905 0 0 1 340.845 63.186 A 33.886 33.886 0 0 1 340.576 60.645 A 21.603 21.603 0 0 1 340.446 58.257 A 23.326 23.326 0 0 1 340.479 57.031 Q 340.479 55.548 340.695 53.864 A 35.599 35.599 0 0 1 341.162 51.123 A 39.384 39.384 0 0 1 341.352 50.261 A 35.124 35.124 0 0 1 343.018 44.971 A 22.78 22.78 0 0 1 344.17 42.54 A 17.031 17.031 0 0 1 345.801 40.088 Q 347.412 38.086 349.17 38.086 A 2.839 2.839 0 0 1 351.123 39.063 A 2.505 2.505 0 0 1 351.156 39.101 Q 351.614 39.646 351.891 40.596 A 8.529 8.529 0 0 1 352.1 41.504 Q 352.326 42.787 351.911 44.886 A 23.414 23.414 0 0 1 351.611 46.191 A 4.351 4.351 0 0 0 352.098 46.081 Q 353.054 45.806 354.102 45.068 Q 355.42 44.141 356.494 42.871 A 14.381 14.381 0 0 0 358.301 40.186 A 7.199 7.199 0 0 0 358.718 39.218 Z M 69.523 55.279 A 26.757 26.757 0 0 0 70.166 50.586 A 46.111 46.111 0 0 0 70.18 50.304 Q 70.43 44.821 69.287 40.869 Q 68.591 38.463 67.741 36.59 A 18.921 18.921 0 0 0 66.504 34.277 Q 64.893 31.738 63.184 30.566 A 17.021 17.021 0 0 0 62.959 30.415 Q 61.429 29.401 60.791 29.492 A 6.667 6.667 0 0 0 60.455 29.534 A 7.289 7.289 0 0 0 58.838 29.981 Q 58.411 30.141 57.983 30.418 A 6.211 6.211 0 0 0 57.275 30.957 A 4.617 4.617 0 0 0 56.638 31.643 A 5.593 5.593 0 0 0 56.006 32.715 A 15.428 15.428 0 0 0 55.942 31.889 Q 55.814 30.695 55.518 30.176 Q 55.383 29.907 55.249 29.777 A 0.499 0.499 0 0 0 55.127 29.688 A 44.754 44.754 0 0 0 54.468 29.504 A 35.053 35.053 0 0 0 53.857 29.346 A 1.649 1.649 0 0 0 53.456 29.297 Q 53.237 29.297 53.006 29.352 A 2.581 2.581 0 0 0 52.588 29.492 Q 52.197 29.688 50.684 30.811 A 10.919 10.919 0 0 0 49.614 31.727 Q 48.566 32.739 47.412 34.277 A 20.585 20.585 0 0 0 46.908 34.98 Q 45.428 37.136 44.092 40.186 A 18.089 18.089 0 0 0 43.772 40.964 Q 43.111 42.686 42.722 44.712 A 31.03 31.03 0 0 0 42.236 48.731 A 27.509 27.509 0 0 0 42.121 51.221 Q 42.121 54.112 42.773 56.69 A 22.204 22.204 0 0 0 43.6 59.292 A 17.283 17.283 0 0 0 45.557 62.988 A 16.307 16.307 0 0 0 46.524 64.233 A 13.422 13.422 0 0 0 49.902 67.09 A 9.644 9.644 0 0 0 54.872 68.463 A 10.233 10.233 0 0 0 55.225 68.457 A 15.892 15.892 0 0 0 55.725 68.434 A 13.643 13.643 0 0 0 61.133 66.992 A 14.33 14.33 0 0 0 65.771 63.232 A 16.78 16.78 0 0 0 67.016 61.49 A 19.325 19.325 0 0 0 68.848 57.617 A 22.754 22.754 0 0 0 69.523 55.279 Z M 101.749 55.279 A 26.757 26.757 0 0 0 102.393 50.586 A 46.111 46.111 0 0 0 102.406 50.304 Q 102.656 44.821 101.514 40.869 Q 100.818 38.463 99.967 36.59 A 18.921 18.921 0 0 0 98.73 34.277 Q 97.119 31.738 95.41 30.566 A 17.021 17.021 0 0 0 95.185 30.415 Q 93.655 29.401 93.018 29.492 A 6.667 6.667 0 0 0 92.682 29.534 A 7.289 7.289 0 0 0 91.064 29.981 Q 90.637 30.141 90.21 30.418 A 6.211 6.211 0 0 0 89.502 30.957 A 4.617 4.617 0 0 0 88.864 31.643 A 5.593 5.593 0 0 0 88.232 32.715 A 15.428 15.428 0 0 0 88.168 31.889 Q 88.041 30.695 87.744 30.176 Q 87.61 29.907 87.476 29.777 A 0.499 0.499 0 0 0 87.354 29.688 A 44.754 44.754 0 0 0 86.694 29.504 A 35.053 35.053 0 0 0 86.084 29.346 A 1.649 1.649 0 0 0 85.683 29.297 Q 85.463 29.297 85.232 29.352 A 2.581 2.581 0 0 0 84.814 29.492 Q 84.424 29.688 82.91 30.811 A 10.919 10.919 0 0 0 81.841 31.727 Q 80.792 32.739 79.639 34.277 A 20.585 20.585 0 0 0 79.135 34.98 Q 77.655 37.136 76.318 40.186 A 18.089 18.089 0 0 0 75.999 40.964 Q 75.338 42.686 74.949 44.712 A 31.03 31.03 0 0 0 74.463 48.731 A 27.509 27.509 0 0 0 74.347 51.221 Q 74.347 54.112 75 56.69 A 22.204 22.204 0 0 0 75.826 59.292 A 17.283 17.283 0 0 0 77.783 62.988 A 16.307 16.307 0 0 0 78.751 64.233 A 13.422 13.422 0 0 0 82.129 67.09 A 9.644 9.644 0 0 0 87.099 68.463 A 10.233 10.233 0 0 0 87.451 68.457 A 15.892 15.892 0 0 0 87.951 68.434 A 13.643 13.643 0 0 0 93.359 66.992 A 14.33 14.33 0 0 0 97.998 63.232 A 16.78 16.78 0 0 0 99.243 61.49 A 19.325 19.325 0 0 0 101.074 57.617 A 22.754 22.754 0 0 0 101.749 55.279 Z M 147.217 31.543 A 9.374 9.374 0 0 0 146.893 31.692 Q 145.654 32.291 145.654 32.813 Q 145.752 35.059 146.045 39.502 A 46.189 46.189 0 0 1 146.078 40.051 Q 146.314 44.434 145.947 52.051 A 140.966 140.966 0 0 0 145.931 52.412 Q 145.787 55.605 145.825 58.039 A 55.127 55.127 0 0 0 145.85 59.033 A 124.947 124.947 0 0 0 145.851 59.064 Q 145.918 61.025 146.03 62.487 A 40.29 40.29 0 0 0 146.143 63.721 A 62.776 62.776 0 0 0 146.234 64.522 Q 146.335 65.353 146.436 65.964 A 16.289 16.289 0 0 0 146.533 66.504 Q 146.68 67.236 146.826 67.639 A 2.22 2.22 0 0 0 146.924 67.871 Q 147.003 68.189 147.727 68.248 A 4.524 4.524 0 0 0 148.096 68.262 A 9.905 9.905 0 0 0 148.811 68.236 A 11.623 11.623 0 0 0 150.342 68.018 A 9.895 9.895 0 0 0 150.845 67.899 A 8.524 8.524 0 0 0 152.49 67.285 Q 153.467 66.797 153.467 66.309 A 75.927 75.927 0 0 1 153.418 63.599 A 71.898 71.898 0 0 1 153.467 60.938 A 104.523 104.523 0 0 1 153.589 58.423 A 77.313 77.313 0 0 1 153.76 56.152 A 384.986 384.986 0 0 1 153.955 53.711 A 300.282 300.282 0 0 1 154.15 51.465 Q 154.248 49.414 154.541 46.436 L 155.127 40.479 A 242.23 242.23 0 0 0 155.396 37.573 A 206.725 206.725 0 0 0 155.615 34.815 A 115.594 115.594 0 0 0 155.696 33.623 Q 155.811 31.786 155.811 30.664 Q 155.811 29.883 154.199 29.932 A 15.722 15.722 0 0 0 152.515 30.078 A 21.011 21.011 0 0 0 150.684 30.42 A 22.413 22.413 0 0 0 149.303 30.784 A 18.233 18.233 0 0 0 147.217 31.543 Z M 63.525 49.414 Q 63.623 47.07 63.379 44.678 A 30.796 30.796 0 0 0 63.012 42.11 A 24.628 24.628 0 0 0 62.598 40.283 Q 62.061 38.281 61.279 37.061 Q 60.664 36.1 60.05 35.895 A 1.048 1.048 0 0 0 59.717 35.84 A 4.594 4.594 0 0 0 58.97 36.079 Q 58.615 36.225 58.232 36.439 A 9.43 9.43 0 0 0 57.764 36.719 A 6.284 6.284 0 0 0 57.136 37.202 Q 56.826 37.472 56.494 37.815 A 15.521 15.521 0 0 0 55.811 38.574 A 9.238 9.238 0 0 0 55.035 39.651 Q 54.378 40.704 53.76 42.188 A 2.057 2.057 0 0 1 53.711 42.012 Q 53.641 41.715 53.571 41.166 A 19.823 19.823 0 0 1 53.564 41.113 A 11.379 11.379 0 0 1 53.508 40.643 Q 53.452 40.079 53.418 39.307 Q 53.382 38.478 53.479 37.199 A 40.293 40.293 0 0 1 53.564 36.231 A 11.5 11.5 0 0 0 51.789 39.248 A 13.594 13.594 0 0 0 51.465 40.137 A 37.592 37.592 0 0 0 50.683 42.868 A 31.219 31.219 0 0 0 50.342 44.434 A 62.382 62.382 0 0 0 49.756 49.316 Q 49.658 51.953 50 54.492 A 20.11 20.11 0 0 0 50.464 56.885 A 15.121 15.121 0 0 0 51.172 58.984 Q 51.912 60.726 52.924 61.846 A 7.138 7.138 0 0 0 53.174 62.109 Q 54.346 63.281 56.006 63.184 A 4.349 4.349 0 0 0 58.73 62.012 A 5.628 5.628 0 0 0 58.936 61.816 A 10.744 10.744 0 0 0 60.236 60.223 A 14.499 14.499 0 0 0 61.182 58.594 A 18.95 18.95 0 0 0 62.25 55.962 A 23.455 23.455 0 0 0 62.744 54.199 Q 63.33 51.758 63.525 49.414 Z M 95.752 49.414 Q 95.85 47.07 95.605 44.678 A 30.796 30.796 0 0 0 95.238 42.11 A 24.628 24.628 0 0 0 94.824 40.283 Q 94.287 38.281 93.506 37.061 Q 92.891 36.1 92.276 35.895 A 1.048 1.048 0 0 0 91.943 35.84 A 4.594 4.594 0 0 0 91.197 36.079 Q 90.841 36.225 90.459 36.439 A 9.43 9.43 0 0 0 89.99 36.719 A 6.284 6.284 0 0 0 89.363 37.202 Q 89.052 37.472 88.721 37.815 A 15.521 15.521 0 0 0 88.037 38.574 A 9.238 9.238 0 0 0 87.261 39.651 Q 86.604 40.704 85.986 42.188 A 2.057 2.057 0 0 1 85.938 42.012 Q 85.868 41.715 85.798 41.166 A 19.823 19.823 0 0 1 85.791 41.113 A 11.379 11.379 0 0 1 85.735 40.643 Q 85.678 40.079 85.645 39.307 Q 85.609 38.478 85.705 37.199 A 40.293 40.293 0 0 1 85.791 36.231 A 11.5 11.5 0 0 0 84.015 39.248 A 13.594 13.594 0 0 0 83.691 40.137 A 37.592 37.592 0 0 0 82.909 42.868 A 31.219 31.219 0 0 0 82.568 44.434 A 62.382 62.382 0 0 0 81.982 49.316 Q 81.885 51.953 82.227 54.492 A 20.11 20.11 0 0 0 82.69 56.885 A 15.121 15.121 0 0 0 83.398 58.984 Q 84.139 60.726 85.15 61.846 A 7.138 7.138 0 0 0 85.4 62.109 Q 86.572 63.281 88.232 63.184 A 4.349 4.349 0 0 0 90.956 62.012 A 5.628 5.628 0 0 0 91.162 61.816 A 10.744 10.744 0 0 0 92.463 60.223 A 14.499 14.499 0 0 0 93.408 58.594 A 18.95 18.95 0 0 0 94.476 55.962 A 23.455 23.455 0 0 0 94.971 54.199 Q 95.557 51.758 95.752 49.414 Z M 130.127 50.684 A 87.123 87.123 0 0 0 130.338 46.738 A 99.502 99.502 0 0 0 130.371 45.361 Q 130.42 42.578 130.518 39.746 Q 129.834 40.82 128.906 41.602 Q 128.057 42.317 127.085 42.05 A 2.346 2.346 0 0 1 126.904 41.992 A 23.798 23.798 0 0 0 127.016 41.001 Q 127.217 38.787 126.855 37.5 A 7.926 7.926 0 0 0 126.522 36.538 Q 126.154 35.675 125.635 35.156 A 3.397 3.397 0 0 0 124.586 34.429 A 3.152 3.152 0 0 0 123.584 34.18 A 3.501 3.501 0 0 0 121.893 34.638 Q 120.998 35.126 120.117 36.133 A 17.214 17.214 0 0 0 118.412 38.47 A 23.315 23.315 0 0 0 117.09 40.967 A 33.179 33.179 0 0 0 115.09 46.712 A 36.642 36.642 0 0 0 114.99 47.119 A 30.583 30.583 0 0 0 114.417 50.162 A 22.371 22.371 0 0 0 114.209 53.125 A 31.212 31.212 0 0 0 114.304 55.652 Q 114.587 59.131 115.723 60.742 A 7.517 7.517 0 0 0 116.544 61.732 Q 117.703 62.891 118.994 62.891 Q 120.459 62.891 122.07 61.719 A 15.021 15.021 0 0 0 123.84 60.196 A 19.861 19.861 0 0 0 125.195 58.691 A 39.35 39.35 0 0 0 128.027 54.736 A 28.411 28.411 0 0 0 129.325 52.452 A 22.19 22.19 0 0 0 130.127 50.684 Z M 384.619 50.684 A 87.123 87.123 0 0 0 384.83 46.738 A 99.502 99.502 0 0 0 384.863 45.361 Q 384.912 42.578 385.01 39.746 Q 384.326 40.82 383.398 41.602 Q 382.549 42.317 381.577 42.05 A 2.346 2.346 0 0 1 381.396 41.992 A 23.798 23.798 0 0 0 381.509 41.001 Q 381.71 38.787 381.348 37.5 A 7.926 7.926 0 0 0 381.014 36.538 Q 380.646 35.675 380.127 35.156 A 3.397 3.397 0 0 0 379.078 34.429 A 3.152 3.152 0 0 0 378.076 34.18 A 3.501 3.501 0 0 0 376.385 34.638 Q 375.491 35.126 374.609 36.133 A 17.214 17.214 0 0 0 372.904 38.47 A 23.315 23.315 0 0 0 371.582 40.967 A 33.179 33.179 0 0 0 369.582 46.712 A 36.642 36.642 0 0 0 369.482 47.119 A 30.583 30.583 0 0 0 368.909 50.162 A 22.371 22.371 0 0 0 368.701 53.125 A 31.212 31.212 0 0 0 368.796 55.652 Q 369.08 59.131 370.215 60.742 A 7.517 7.517 0 0 0 371.036 61.732 Q 372.195 62.891 373.486 62.891 Q 374.951 62.891 376.562 61.719 A 15.021 15.021 0 0 0 378.332 60.196 A 19.861 19.861 0 0 0 379.687 58.691 A 39.35 39.35 0 0 0 382.52 54.736 A 28.411 28.411 0 0 0 383.817 52.452 A 22.19 22.19 0 0 0 384.619 50.684 Z M 275.342 34.082 Q 273.682 34.082 272.168 35.547 Q 270.654 37.012 269.482 39.404 A 22.518 22.518 0 0 0 268.236 42.556 A 28.417 28.417 0 0 0 267.627 44.824 A 27.412 27.412 0 0 0 266.943 50.879 A 33.774 33.774 0 0 0 267.172 54.755 A 36.842 36.842 0 0 0 267.188 54.883 A 14.343 14.343 0 0 0 267.718 57.427 A 12.316 12.316 0 0 0 268.164 58.643 A 9.05 9.05 0 0 0 269.006 60.193 A 7.109 7.109 0 0 0 270.068 61.426 A 3.971 3.971 0 0 0 271.93 62.37 A 5.824 5.824 0 0 0 273.193 62.5 A 4.444 4.444 0 0 0 275.353 61.758 A 5.787 5.787 0 0 0 275.928 61.328 Q 276.991 60.458 278.102 58.536 A 20.425 20.425 0 0 0 278.125 58.496 A 11.082 11.082 0 0 0 278.845 56.957 Q 279.483 55.301 279.932 52.93 Q 280.568 53.566 280.977 54.138 A 6.164 6.164 0 0 1 281.152 54.395 A 16.145 16.145 0 0 1 281.549 55.044 Q 281.733 55.362 281.88 55.655 A 10.097 10.097 0 0 1 281.885 55.664 A 17.794 17.794 0 0 0 281.951 55.037 Q 282.001 54.48 282.031 53.809 A 44.757 44.757 0 0 0 282.066 52.737 Q 282.078 52.174 282.08 51.548 A 74.981 74.981 0 0 0 282.08 51.367 A 54.508 54.508 0 0 0 281.987 48.262 A 69.113 69.113 0 0 0 281.787 45.654 A 34.185 34.185 0 0 0 281.318 42.364 A 27.019 27.019 0 0 0 280.762 40.039 A 14.935 14.935 0 0 0 279.946 37.841 A 10.937 10.937 0 0 0 278.711 35.791 A 4.609 4.609 0 0 0 277.519 34.685 A 4.008 4.008 0 0 0 275.342 34.082 Z M 194.873 25.391 L 194.873 18.555 A 468.984 468.984 0 0 1 194.885 15.259 A 630.68 630.68 0 0 1 194.922 11.621 A 601.874 601.874 0 0 0 194.971 3.906 A 7.84 7.84 0 0 1 197.176 2.368 A 9.118 9.118 0 0 1 197.559 2.197 A 18.166 18.166 0 0 1 199.215 1.591 A 14.274 14.274 0 0 1 200.439 1.27 Q 202.002 0.879 203.662 0.879 A 202.91 202.91 0 0 0 202.979 6.25 A 160.205 160.205 0 0 0 202.49 11.231 Q 202.1 16.016 201.904 19.531 Q 201.611 23.633 201.514 27.051 A 2.305 2.305 0 0 1 200.146 27.588 A 4.24 4.24 0 0 1 199.882 27.596 Q 199.504 27.596 199.095 27.532 A 6.621 6.621 0 0 1 198.437 27.393 A 7.184 7.184 0 0 1 197.104 26.89 A 8.568 8.568 0 0 1 196.582 26.611 Q 195.654 26.074 194.873 25.391 Z M 180.127 31.348 A 1.037 1.037 0 0 0 179.799 31.414 Q 179.167 31.631 177.93 32.568 Q 176.318 33.789 174.512 36.133 A 25.574 25.574 0 0 0 172.675 38.885 A 34.447 34.447 0 0 0 171.191 41.748 A 21.079 21.079 0 0 0 169.664 46.519 A 26.106 26.106 0 0 0 169.287 49.121 Q 174.002 48.021 177.136 45.909 A 15.507 15.507 0 0 0 178.564 44.824 A 9.413 9.413 0 0 0 181.579 39.801 Q 181.982 38.178 181.982 36.231 Q 181.982 34.148 181.613 33.042 A 2.815 2.815 0 0 0 181.299 32.373 A 5.782 5.782 0 0 0 181.019 31.986 Q 180.512 31.348 180.127 31.348 Z M 417.139 31.348 A 1.037 1.037 0 0 0 416.811 31.414 Q 416.178 31.631 414.941 32.568 Q 413.33 33.789 411.523 36.133 A 25.574 25.574 0 0 0 409.687 38.885 A 34.447 34.447 0 0 0 408.203 41.748 A 21.079 21.079 0 0 0 406.676 46.519 A 26.106 26.106 0 0 0 406.299 49.121 Q 411.014 48.021 414.148 45.909 A 15.507 15.507 0 0 0 415.576 44.824 A 9.413 9.413 0 0 0 418.59 39.801 Q 418.994 38.178 418.994 36.231 Q 418.994 34.148 418.624 33.042 A 2.815 2.815 0 0 0 418.311 32.373 A 5.782 5.782 0 0 0 418.031 31.986 Q 417.524 31.348 417.139 31.348 Z M 155.842 14.325 A 6.481 6.481 0 0 0 152.49 13.379 Q 151.265 13.379 150.294 13.601 A 5.87 5.87 0 0 0 148.975 14.063 A 7.221 7.221 0 0 0 148.032 14.623 A 5.473 5.473 0 0 0 146.826 15.772 A 5.972 5.972 0 0 0 145.752 18.018 Q 145.459 19.238 145.459 20.215 A 6.809 6.809 0 0 0 145.496 20.917 A 8.426 8.426 0 0 0 145.654 21.875 A 4.26 4.26 0 0 0 146.387 23.486 Q 146.924 24.219 147.9 24.756 Q 148.877 25.293 150.439 25.293 A 4.461 4.461 0 0 0 150.714 25.285 Q 151.285 25.249 151.9 25.069 A 7.713 7.713 0 0 0 152.979 24.658 Q 154.346 24.024 155.42 22.949 A 10.328 10.328 0 0 0 157.227 20.508 A 6.901 6.901 0 0 0 157.272 20.422 A 5.902 5.902 0 0 0 157.959 17.676 A 3.458 3.458 0 0 0 157.238 15.494 A 4.34 4.34 0 0 0 156.201 14.551 A 7.962 7.962 0 0 0 155.842 14.325 Z M 150.049 22.461 A 1.892 1.892 0 0 0 150.569 22.383 Q 150.797 22.317 151.044 22.198 A 4.207 4.207 0 0 0 151.367 22.022 Q 152.1 21.582 152.734 20.996 A 6.596 6.596 0 0 0 153.724 19.854 A 6.11 6.11 0 0 0 153.809 19.727 A 4.042 4.042 0 0 0 154.021 19.358 Q 154.228 18.946 154.246 18.618 A 1.129 1.129 0 0 0 154.248 18.555 A 1.125 1.125 0 0 0 154.209 18.246 Q 154.11 17.899 153.756 17.807 A 1.151 1.151 0 0 0 153.467 17.774 A 1.603 1.603 0 0 0 153.102 17.82 Q 152.758 17.9 152.325 18.123 A 5.767 5.767 0 0 0 152.246 18.164 A 9.616 9.616 0 0 0 150.83 19.092 A 5.817 5.817 0 0 0 150.073 19.799 A 4.885 4.885 0 0 0 149.707 20.264 Q 149.356 20.771 149.285 21.248 A 1.617 1.617 0 0 0 149.268 21.484 Q 149.268 22.373 149.914 22.453 A 1.094 1.094 0 0 0 150.049 22.461 Z" vector-effect="non-scaling-stroke"/></g></svg>